<?xml version="1.0" encoding="UTF-8" standalone="no"?>
<svg
   xmlns:dc="http://purl.org/dc/elements/1.1/"
   xmlns:cc="http://creativecommons.org/ns#"
   xmlns:rdf="http://www.w3.org/1999/02/22-rdf-syntax-ns#"
   xmlns:svg="http://www.w3.org/2000/svg"
   xmlns="http://www.w3.org/2000/svg"
   xmlns:sodipodi="http://sodipodi.sourceforge.net/DTD/sodipodi-0.dtd"
   xmlns:inkscape="http://www.inkscape.org/namespaces/inkscape"
   xml:space="preserve"
   width="1200"
   height="768"
   viewBox="0 0 1200 768"
   version="1.1"
   id="svg5427"
   sodipodi:docname="floorplan.svg"
   inkscape:version="0.92.2 (5c3e80d, 2017-08-06)"><metadata
     id="metadata5433"><rdf:RDF><cc:Work
         rdf:about=""><dc:format>image/svg+xml</dc:format><dc:type
           rdf:resource="http://purl.org/dc/dcmitype/StillImage" /><dc:title /></cc:Work></rdf:RDF></metadata><defs
     id="defs5431" /><sodipodi:namedview
     pagecolor="#ffffff"
     bordercolor="#666666"
     borderopacity="1"
     objecttolerance="10"
     gridtolerance="10"
     guidetolerance="10"
     inkscape:pageopacity="0"
     inkscape:pageshadow="2"
     inkscape:window-width="1920"
     inkscape:window-height="986"
     id="namedview5429"
     showgrid="true"
     inkscape:zoom="1"
     inkscape:cx="408.88095"
     inkscape:cy="425.67969"
     inkscape:window-x="-11"
     inkscape:window-y="-11"
     inkscape:window-maximized="1"
     inkscape:current-layer="g5425" /><g
     font-weight="bold"
     id="g5425"
     style="font-weight:bold;font-family:sans-serif"
     transform="translate(0,-3177)"><g
       transform="matrix(0.75053203,0,0,0.46275952,752.42387,3434.4476)"
       id="g4569"
       style="fill:none;stroke:#7b7569"><path
         d="M 455.6015,561.6228 H -794.8647 V -444.8385 H 455.6015 Z"
         id="path4567"
         inkscape:connector-curvature="0"
         style="fill:#7b7569" /></g><g
       transform="matrix(0.75053203,0,0,0.46275952,752.42387,3434.4476)"
       id="g4573"
       style="fill:none;stroke:#d9d4ad"><path
         d="M 418.60151,-407.83851 V 524.62275 H -757.86471 v -932.46126 z"
         id="path4571"
         inkscape:connector-curvature="0"
         style="fill:#d9d4ad" /></g><g
       transform="matrix(0.75053203,0,0,0.46275952,752.42387,3434.4476)"
       id="g4577"
       style="fill:none;stroke:#acd1d9"><path
         d="M 430.60202,581.91846 V 871.69484 H -793.29756 V 581.91846 Z"
         id="path4575"
         inkscape:connector-curvature="0"
         style="fill:#acd1d9" /></g><g
       transform="matrix(0.75053203,0,0,0.46275952,752.42387,3434.4476)"
       id="g4589"
       style="fill:none;stroke:#d9d4ad;stroke-width:1.00013006"><path
         d="m -270.4112,348.0017 v 188.6211 h -12.04 V 348.0017 Z"
         id="path4583"
         inkscape:connector-curvature="0"
         style="fill:#d9d4ad" /><path
         d="m 455.6215,-4.2043 v 132.7226 h -37.04 V -4.2043 Z"
         id="path4585"
         inkscape:connector-curvature="0"
         style="fill:#d9d4ad" /><path
         d="M -75.3211,581.9385 H -263.9422 V 524.6028 H -75.3211 Z"
         id="path4587"
         inkscape:connector-curvature="0"
         style="fill:#d9d4ad" /></g><g
       transform="matrix(0.75053203,0,0,0.46275952,752.42387,3434.4476)"
       id="g4593"
       style="fill:none;stroke:#acd1d9;stroke-width:1.00013006"><path
         d="m 467.622,581.9185 v 121.5351 h -37.04 V 581.9185 Z"
         id="path4591"
         inkscape:connector-curvature="0"
         style="fill:#acd1d9" /></g><g
       transform="matrix(0.75053203,0,0,0.46275952,752.42387,3434.4476)"
       id="g4599"
       style="fill:none;stroke:#ffffff;stroke-width:1.00013006"><path
         d="m 455.6215,-316.0565 v 179.0705 h -37.04 v -179.0705 z"
         id="path4595"
         inkscape:connector-curvature="0"
         style="fill:#ffffff" /><path
         d="M -805.3176,-19.5724 V -182.795 h 47.4729 v 163.2226 z"
         id="path4597"
         inkscape:connector-curvature="0"
         style="fill:#ffffff" /></g><g
       transform="matrix(0.75053203,0,0,0.46275952,752.42387,3434.4476)"
       id="g4605"
       style="fill:none;stroke:#7b7569;stroke-width:1.50020003"><path
         d="m -282.4312,280.758 h -475.4335 v -12 h 475.4335 z"
         id="path4601"
         inkscape:connector-curvature="0"
         style="fill:#7b7569" /><path
         d="m -270.4312,348.0017 h -12 V 280.758 h 12 z"
         id="path4603"
         inkscape:connector-curvature="0"
         style="fill:#7b7569" /></g><g
       transform="matrix(0.75053203,0,0,0.46275952,752.42387,3434.4476)"
       id="g4613"
       style="fill:none;stroke:#ffffff;stroke-width:0.50006998"><path
         d="m -757.86471,350.758 c 0,5.52285 4.47715,10 10,10 h 70.57817 c 5.52284,0 9.99999,-4.47715 9.99999,-10 v -60 c 0,-5.52285 -4.47715,-10 -9.99999,-10 h -70.57817 c -5.52285,0 -10,4.47715 -10,10 z"
         id="path4611"
         inkscape:connector-curvature="0"
         style="fill:#ffffff" /></g><g
       transform="matrix(0.75053203,0,0,0.46275952,752.42387,3434.4476)"
       id="g4621"
       style="fill:none;stroke:#000000;stroke-width:0.50006998"><path
         d="m -757.86471,350.758 c 0,5.52285 4.47715,10 10,10 h 70.57817 c 5.52284,0 9.99999,-4.47715 9.99999,-10 v -60 c 0,-5.52285 -4.47715,-10 -9.99999,-10 h -70.57817 c -5.52285,0 -10,4.47715 -10,10 z"
         id="path4615"
         inkscape:connector-curvature="0" /><path
         d="m -753.86471,350.758 c 0,3.31371 2.68629,6 6,6 h 70.57817 c 3.3137,0 6,-2.68629 6,-6 v -60 c 0,-3.31371 -2.6863,-6 -6,-6 h -70.57817 c -3.31371,0 -6,2.68629 -6,6 z"
         id="path4617"
         inkscape:connector-curvature="0" /><circle
         cx="-742.86469"
         cy="295.758"
         id="ellipse4619"
         r="3" /></g><g
       id="light.hue_color_lamp_1"
       inkscape:label="#g5449"
       transform="matrix(0.37515443,0,0,0.30738403,-259.21601,3136.7427)"><g
         style="fill:none;stroke:#ffffff;stroke-width:0.50006998"
         id="g4625"
         transform="matrix(1.99974,0,0,1.99974,2696.7615,1012.7453)"><path
           style="fill:#ffffff"
           inkscape:connector-curvature="0"
           id="path4623"
           d="m 144.50667,-89.62428 c 0,-27.26133 22.09968,-49.361 49.361,-49.361 27.26132,0 49.36099,22.09967 49.36099,49.361" /></g><g
         style="fill:none;stroke:#000000;stroke-width:0.50006998"
         id="g4631"
         transform="matrix(1.99974,0,0,1.99974,2696.7615,1012.7453)"><path
           inkscape:connector-curvature="0"
           id="path4627"
           d="m 144.50667,-89.62428 c 0,-27.26133 22.09968,-49.361 49.361,-49.361 27.26132,0 49.36099,22.09967 49.36099,49.361 z" /><path
           inkscape:connector-curvature="0"
           id="path4629"
           d="m 193.86767,-138.98528 v -49.36099" /></g></g><g
       id="light.hue_color_lamp_2"
       inkscape:label="#g5442"
       transform="matrix(0.68284093,0,0,0.76990426,-812.12308,2808.0282)"><g
         style="fill:none;stroke:#ffffff;stroke-width:0.50006998"
         id="g4635"
         transform="matrix(1.99974,0,0,1.99974,2696.7615,1012.7453)"><path
           style="fill:#ffffff"
           inkscape:connector-curvature="0"
           id="path4633"
           d="m -518.25314,-89.62428 c 0,-18.67893 15.14227,-33.8212 33.8212,-33.8212 18.67893,0 33.8212,15.14227 33.8212,33.8212" /></g><g
         style="fill:none;stroke:#000000;stroke-width:0.50006998"
         id="g4641"
         transform="matrix(1.99974,0,0,1.99974,2696.7615,1012.7453)"><path
           inkscape:connector-curvature="0"
           id="path4637"
           d="m -518.25314,-89.62428 c 0,-18.67893 15.14227,-33.8212 33.8212,-33.8212 18.67893,0 33.8212,15.14227 33.8212,33.8212 z" /><path
           inkscape:connector-curvature="0"
           id="path4639"
           d="m -484.43194,-123.44548 v -33.8212" /></g></g><g
       id="g447"
       transform="matrix(0.99929101,0,0,1.4833137,0.66662934,-1749.7504)"><g
         style="fill:none;stroke:#ffffff;stroke-width:0.50006998"
         id="g4645"
         transform="matrix(0.75053203,0,0,0.46275952,752.42387,3434.4476)"><path
           style="fill:#ffffff"
           inkscape:connector-curvature="0"
           id="path4643"
           d="m 207.78862,401.53597 c 0,-23.45796 19.01643,-42.47439 42.47439,-42.47439 23.45796,0 42.47439,19.01643 42.47439,42.47439" /></g><g
         inkscape:label="#g4651"
         style="fill:none;stroke:#000000;stroke-width:0.50006998"
         id="light.hue_color_lamp_3"
         transform="matrix(0.75053203,0,0,0.46275952,752.42387,3434.4476)"><path
           inkscape:connector-curvature="0"
           id="path4647"
           d="m 207.78862,401.53597 c 0,-23.45796 19.01643,-42.47439 42.47439,-42.47439 23.45796,0 42.47439,19.01643 42.47439,42.47439 z" /><path
           inkscape:connector-curvature="0"
           id="path4649"
           d="M 250.26301,359.06158 V 316.58719" /></g></g><g
       transform="matrix(0.75053203,0,0,0.46275952,752.42387,3434.4476)"
       id="g4657"
       style="fill:none;stroke:#ffffff;stroke-width:0.50006998"><path
         d="m -757.86471,521.62275 c 0,1.65685 1.34314,3 3,3 h 47.90349 c 1.65685,0 3,-1.34315 3,-3 v -9 c 0,-1.65685 -1.34315,-3 -3,-3 h -47.90349 c -1.65686,0 -3,1.34315 -3,3 z"
         id="path4653"
         inkscape:connector-curvature="0"
         style="fill:#ffffff" /><path
         d="m -752.86471,509.62275 c -10,-32.99688 0,-58.84136 21.95174,-58.84136 21.95175,0 31.95175,25.84448 21.95175,58.84136 z"
         id="path4655"
         inkscape:connector-curvature="0"
         style="fill:#ffffff" /></g><g
       transform="matrix(0.75053203,0,0,0.46275952,752.42387,3434.4476)"
       id="g4665"
       style="fill:none;stroke:#000000;stroke-width:0.50006998"><path
         d="m -757.86471,521.62275 c 0,1.65685 1.34314,3 3,3 h 47.90349 c 1.65685,0 3,-1.34315 3,-3 v -9 c 0,-1.65685 -1.34315,-3 -3,-3 h -47.90349 c -1.65686,0 -3,1.34315 -3,3 z"
         id="path4659"
         inkscape:connector-curvature="0" /><circle
         cx="-730.91296"
         cy="517.12274"
         id="ellipse4661"
         r="2" /><path
         d="m -752.86471,509.62275 c -10,-32.99688 0,-58.84136 21.95174,-58.84136 21.95175,0 31.95175,25.84448 21.95175,58.84136"
         id="path4663"
         inkscape:connector-curvature="0" /></g><g
       transform="matrix(0.75053203,0,0,0.46275952,752.42387,3434.4476)"
       id="g4669"
       style="fill:none;stroke:#ffffff;stroke-width:0.50006998"><path
         d="m -761.16853,-407.83851 h 400 v 61 h -400 z"
         id="path4667"
         inkscape:connector-curvature="0"
         style="fill:#ffffff" /></g><g
       transform="matrix(0.75053203,0,0,0.46275952,752.42387,3434.4476)"
       id="g4681"
       style="fill:none;stroke:#000000;stroke-width:0.50006998"><path
         d="m -761.16853,-407.83851 h 400 v 61 h -400 z"
         id="path4671"
         inkscape:connector-curvature="0" /><path
         d="m -361.16853,-348.83851 h -400"
         id="path4673"
         inkscape:connector-curvature="0" /><path
         d="m -561.16853,-348.83851 v 2"
         id="path4675"
         inkscape:connector-curvature="0" /><path
         d="m -559.16853,-346.83851 v 2 h 3"
         id="path4677"
         inkscape:connector-curvature="0" /><path
         d="m -563.16853,-346.83851 v 2 h -3"
         id="path4679"
         inkscape:connector-curvature="0" /></g><g
       transform="matrix(0.75053203,0,0,0.46275952,752.42387,3434.4476)"
       id="g4685"
       style="fill:none;stroke:#ffffff;stroke-width:0.50006998"><path
         d="m -761.16853,-182.36309 v -164.47542 h 74.32954 v 164.47542 z"
         id="path4683"
         inkscape:connector-curvature="0"
         style="fill:#ffffff" /></g><g
       transform="matrix(0.75053203,0,0,0.46275952,752.42387,3434.4476)"
       id="g4697"
       style="fill:none;stroke:#000000;stroke-width:0.50006998"><path
         d="m -761.16853,-182.36309 v -164.47542 h 74.32954 v 164.47542 z"
         id="path4687"
         inkscape:connector-curvature="0" /><path
         d="m -688.83899,-346.83851 v 164.47542"
         id="path4689"
         inkscape:connector-curvature="0" /><path
         d="m -688.83899,-264.6008 h 2"
         id="path4691"
         inkscape:connector-curvature="0" /><path
         d="m -686.83899,-266.6008 h 2 v -3"
         id="path4693"
         inkscape:connector-curvature="0" /><path
         d="m -686.83899,-262.6008 h 2 v 3"
         id="path4695"
         inkscape:connector-curvature="0" /></g><g
       transform="matrix(0.75053203,0,0,0.46275952,752.42387,3434.4476)"
       id="g4701"
       style="fill:none;stroke:#ffffff;stroke-width:0.50006998"><path
         d="m -361.16853,-71.78405 v 238.06734 h 90 V -71.78405 Z"
         id="path4699"
         inkscape:connector-curvature="0"
         style="fill:#ffffff" /></g><g
       transform="matrix(0.75053203,0,0,0.46275952,752.42387,3434.4476)"
       id="g4705"
       style="fill:none;stroke:#000000;stroke-width:0.50006998"><path
         d="m -361.16853,-71.78405 v 238.06734 h 90 V -71.78405 Z"
         id="path4703"
         inkscape:connector-curvature="0" /></g><g
       transform="matrix(0.75053203,0,0,0.46275952,752.42387,3434.4476)"
       id="g4709"
       style="fill:none;stroke:#ffffff;stroke-width:0.50006998"><path
         d="m -361.16853,166.28329 h 90 v 97.74228 h -90 z"
         id="path4707"
         inkscape:connector-curvature="0"
         style="fill:#ffffff" /></g><g
       transform="matrix(0.75053203,0,0,0.46275952,752.42387,3434.4476)"
       id="g4721"
       style="fill:none;stroke:#000000;stroke-width:0.50006998"><path
         d="m -361.16853,166.28329 h 90 v 97.74228 h -90 z"
         id="path4711"
         inkscape:connector-curvature="0" /><path
         d="m -271.16853,262.02557 h -90"
         id="path4713"
         inkscape:connector-curvature="0" /><path
         d="m -316.16853,262.02557 v 2"
         id="path4715"
         inkscape:connector-curvature="0" /><path
         d="m -314.16853,264.02557 v 2 h 3"
         id="path4717"
         inkscape:connector-curvature="0" /><path
         d="m -318.16853,264.02557 v 2 h -3"
         id="path4719"
         inkscape:connector-curvature="0" /></g><g
       transform="matrix(0.75053203,0,0,0.46275952,752.42387,3434.4476)"
       id="g4725"
       style="fill:none;stroke:#ffffff;stroke-width:0.50006998"><path
         d="m -34.996,-407.8385 h 400 v 95.7928 h -400 z"
         id="path4723"
         inkscape:connector-curvature="0"
         style="fill:#ffffff" /></g><g
       transform="matrix(0.75053203,0,0,0.46275952,752.42387,3434.4476)"
       id="g4737"
       style="fill:none;stroke:#000000;stroke-width:0.50006998"><path
         d="m -34.996,-407.8385 h 400 v 95.7928 h -400 z"
         id="path4727"
         inkscape:connector-curvature="0" /><path
         d="m 365.004,-314.0457 h -400"
         id="path4729"
         inkscape:connector-curvature="0" /><path
         d="m 165.004,-314.0457 v 2"
         id="path4731"
         inkscape:connector-curvature="0" /><path
         d="m 167.004,-312.0457 v 2 h 3"
         id="path4733"
         inkscape:connector-curvature="0" /><path
         d="m 163.004,-312.0457 v 2 h -3"
         id="path4735"
         inkscape:connector-curvature="0" /></g><g
       transform="matrix(0.75053203,0,0,0.46275952,752.42387,3434.4476)"
       id="g4741"
       style="fill:none;stroke:#ffffff;stroke-width:0.50006998"><path
         d="m -633.54365,-347.83851 h 97.35209 v -60 h -97.35209 z"
         id="path4739"
         inkscape:connector-curvature="0"
         style="fill:#ffffff" /></g><g
       transform="matrix(0.75053203,0,0,0.46275952,752.42387,3434.4476)"
       id="g4757"
       style="fill:none;stroke:#000000;stroke-width:0.50006998"><path
         d="m -633.54365,-347.83851 h 97.35209 v -60 h -97.35209 z"
         id="path4743"
         inkscape:connector-curvature="0" /><circle
         cx="-617.3183"
         cy="-392.8385"
         id="ellipse4745"
         r="9" /><circle
         cx="-584.86761"
         cy="-392.8385"
         id="ellipse4747"
         r="6" /><circle
         cx="-552.41693"
         cy="-392.8385"
         id="ellipse4749"
         r="9" /><circle
         cx="-617.3183"
         cy="-362.8385"
         id="ellipse4751"
         r="6" /><circle
         cx="-584.86761"
         cy="-362.8385"
         id="ellipse4753"
         r="9" /><circle
         cx="-552.41693"
         cy="-362.8385"
         id="ellipse4755"
         r="6" /></g><g
       transform="matrix(0.75053203,0,0,0.46275952,752.42387,3434.4476)"
       id="g4761"
       style="fill:none;stroke:#ffffff;stroke-width:0.50006998"><path
         d="m -604.93151,484.62275 c -15.9797,0 -31.95939,8 -31.95939,20 v 20 h 63.91879 v -20 c 0,-12 -15.9797,-20 -31.9594,-20 z"
         id="path4759"
         inkscape:connector-curvature="0"
         style="fill:#ffffff" /></g><g
       transform="matrix(0.75053203,0,0,0.46275952,752.42387,3434.4476)"
       id="g4775"
       style="fill:none;stroke:#000000;stroke-width:0.50006998"><path
         d="m -604.93151,484.62275 c -15.9797,0 -31.95939,8 -31.95939,20 v 20 h 63.91879 v -20 c 0,-12 -15.9797,-20 -31.9594,-20 z"
         id="path4763"
         inkscape:connector-curvature="0" /><path
         d="m -603.43151,503.62275 h -3 v 15 h 3 z"
         id="path4765"
         inkscape:connector-curvature="0" /><circle
         cx="-594.93152"
         cy="515.62274"
         id="ellipse4767"
         r="2.5" /><circle
         cx="-614.93152"
         cy="515.62274"
         id="ellipse4769"
         r="2.5" /><path
         d="m -604.93151,488.12275 c -12.78376,0 -26.95939,6.5 -26.95939,12.5 0,8 14.17563,10 25.45939,10"
         id="path4771"
         inkscape:connector-curvature="0" /><path
         d="m -604.93151,488.12275 c 12.78376,0 26.9594,6.5 26.9594,12.5 0,8 -14.17564,10 -25.4594,10"
         id="path4773"
         inkscape:connector-curvature="0" /></g><g
       transform="matrix(0.75053203,0,0,0.46275952,752.42387,3434.4476)"
       id="g4783"
       style="fill:none;stroke:#ffffff;stroke-width:0.50006998"><path
         d="m 146.7443,-407.83851 h 40 v 25 h -40 z"
         id="path4777"
         inkscape:connector-curvature="0"
         style="fill:#ffffff" /><path
         d="m 116.7443,-398.33851 h 100 v 6 h -100 z"
         id="path4779"
         inkscape:connector-curvature="0"
         style="fill:#ffffff" /><path
         d="m 126.7443,-398.33851 3,-3 h 74 l 3,3"
         id="path4781"
         inkscape:connector-curvature="0"
         style="fill:#ffffff" /></g><g
       transform="matrix(1.2574338,0,0,1.2195747,672.77349,3747.5022)"
       id="media_player.sony_bravia_tv"
       style="fill:none;stroke:#000000;stroke-width:0.50006998"
       inkscape:label="#g4793"><path
         d="m 116.7443,-398.33851 h 100 v 6 h -100 z"
         id="path4785"
         inkscape:connector-curvature="0" /><path
         d="m 126.7443,-398.33851 3,-3 h 74 l 3,3"
         id="path4787"
         inkscape:connector-curvature="0" /><path
         d="m 146.7443,-401.33851 v -6.5 h 40 v 6.5"
         id="path4789"
         inkscape:connector-curvature="0" /><path
         d="m 146.7443,-392.33851 v 9.5 h 40 v -9.5"
         id="path4791"
         inkscape:connector-curvature="0" /></g><g
       transform="matrix(0.75053203,0,0,0.46275952,752.42387,3434.4476)"
       id="g4797"
       style="fill:none;stroke:#ffffff;stroke-width:0.50006998"><path
         d="m -761.16853,-14.72456 v -169.56672 h 74.80302 v 169.56672 z"
         id="path4795"
         inkscape:connector-curvature="0"
         style="fill:#ffffff" /></g><g
       transform="matrix(0.75053203,0,0,0.46275952,752.42387,3434.4476)"
       id="g4809"
       style="fill:none;stroke:#000000;stroke-width:0.50006998"><path
         d="m -761.16853,-14.72456 v -169.56672 h 74.80302 v 169.56672 z"
         id="path4799"
         inkscape:connector-curvature="0" /><path
         d="M -688.36551,-184.29128 V -14.72456"
         id="path4801"
         inkscape:connector-curvature="0" /><path
         d="m -688.36551,-99.50792 h 2"
         id="path4803"
         inkscape:connector-curvature="0" /><path
         d="m -686.36551,-101.50792 h 2 v -3"
         id="path4805"
         inkscape:connector-curvature="0" /><path
         d="m -686.36551,-97.50792 h 2 v 3"
         id="path4807"
         inkscape:connector-curvature="0" /></g><g
       transform="matrix(0.75053203,0,0,0.46275952,752.42387,3434.4476)"
       id="g4813"
       style="fill:none;stroke:#ffffff;stroke-width:0.50006998"><path
         d="M -761.16853,165.82832 V -14.72456 h 74.80302 v 180.55288 z"
         id="path4811"
         inkscape:connector-curvature="0"
         style="fill:#ffffff" /></g><g
       transform="matrix(0.75053203,0,0,0.46275952,752.42387,3434.4476)"
       id="g4825"
       style="fill:none;stroke:#000000;stroke-width:0.50006998"><path
         d="M -761.16853,165.82832 V -14.72456 h 74.80302 v 180.55288 z"
         id="path4815"
         inkscape:connector-curvature="0" /><path
         d="M -688.36551,-14.72456 V 165.82832"
         id="path4817"
         inkscape:connector-curvature="0" /><path
         d="m -688.36551,75.55188 h 2"
         id="path4819"
         inkscape:connector-curvature="0" /><path
         d="m -686.36551,73.55188 h 2 v -3"
         id="path4821"
         inkscape:connector-curvature="0" /><path
         d="m -686.36551,77.55188 h 2 v 3"
         id="path4823"
         inkscape:connector-curvature="0" /></g><g
       transform="matrix(0.75053203,0,0,0.46275952,752.42387,3434.4476)"
       id="g4829"
       style="fill:none;stroke:#ffffff;stroke-width:0.50006998"><path
         d="m -761.16853,165.82831 h 400 v 100 h -400 z"
         id="path4827"
         inkscape:connector-curvature="0"
         style="fill:#ffffff" /></g><g
       transform="matrix(0.75053203,0,0,0.46275952,752.42387,3434.4476)"
       id="g4887"
       style="fill:none;stroke:#000000;stroke-width:0.50006998"><path
         d="m -761.16853,165.82831 h 400 v 100 h -400 z"
         id="path4831"
         inkscape:connector-curvature="0" /><path
         d="m -361.16853,263.82831 h -400"
         id="path4833"
         inkscape:connector-curvature="0" /><path
         d="m -561.16853,263.82831 v 2"
         id="path4835"
         inkscape:connector-curvature="0" /><path
         d="m -559.16853,265.82831 v 2 h 3"
         id="path4837"
         inkscape:connector-curvature="0" /><path
         d="m -563.16853,265.82831 v 2 h -3"
         id="path4839"
         inkscape:connector-curvature="0" /><path
         d="m -271.43117,348.00165 v 5 h -188.6211 c 0,98.64971 79.97139,178.6211 178.6211,178.6211 h 10 v 5"
         id="path4841"
         inkscape:connector-curvature="0" /><line
         x1="-281.43118"
         y1="348.00165"
         x2="-281.43118"
         y2="536.62274"
         id="line4843" /><line
         x1="-281.43118"
         y1="358.00165"
         x2="-459.62994"
         y2="358.00165"
         id="line4845" /><line
         x1="418.6015"
         y1="-136.98598"
         x2="418.6015"
         y2="-316.05655"
         id="line4847" /><line
         x1="455.6015"
         y1="-136.98598"
         x2="455.6015"
         y2="-316.05655"
         id="line4849" /><line
         x1="442.1015"
         y1="-316.05655"
         x2="442.1015"
         y2="-136.98598"
         id="line4851" /><line
         x1="432.1015"
         y1="-316.05655"
         x2="432.1015"
         y2="-136.98598"
         id="line4853" /><line
         x1="432.1015"
         y1="-306.05655"
         x2="442.1015"
         y2="-306.05655"
         id="line4855" /><line
         x1="432.1015"
         y1="-146.98598"
         x2="442.1015"
         y2="-146.98598"
         id="line4857" /><line
         x1="437.1015"
         y1="-306.05655"
         x2="437.1015"
         y2="-146.98598"
         id="line4859" /><path
         d="m 442.10151,-4.20428 v 5 H 309.37895 c 0,67.7778 54.94476,122.72256 122.72256,122.72256 h 10 v 5"
         id="path4861"
         inkscape:connector-curvature="0" /><line
         x1="432.1015"
         y1="-4.2042799"
         x2="432.1015"
         y2="128.51828"
         id="line4863" /><line
         x1="432.1015"
         y1="5.7957201"
         x2="309.6727"
         y2="5.7957201"
         id="line4865" /><path
         d="m -75.32105,548.27061 h -5 v 188.62111 c -98.64972,0 -178.62111,-79.9714 -178.62111,-178.62111 v -10 h -5"
         id="path4867"
         inkscape:connector-curvature="0" /><line
         x1="-75.321053"
         y1="558.27063"
         x2="-263.94217"
         y2="558.27063"
         id="line4869" /><line
         x1="-85.321053"
         y1="558.27063"
         x2="-85.321053"
         y2="736.46936"
         id="line4871" /><line
         x1="-757.86469"
         y1="-182.79498"
         x2="-757.86469"
         y2="-19.57239"
         id="line4873" /><line
         x1="-805.29755"
         y1="-182.79498"
         x2="-805.29755"
         y2="-19.57239"
         id="line4875" /><line
         x1="-786.58112"
         y1="-19.57239"
         x2="-786.58112"
         y2="-182.79498"
         id="line4877" /><line
         x1="-776.58112"
         y1="-19.57239"
         x2="-776.58112"
         y2="-182.79498"
         id="line4879" /><line
         x1="-776.58112"
         y1="-29.57239"
         x2="-786.58112"
         y2="-29.57239"
         id="line4881" /><line
         x1="-776.58112"
         y1="-172.79498"
         x2="-786.58112"
         y2="-172.79498"
         id="line4883" /><line
         x1="-781.58112"
         y1="-29.57239"
         x2="-781.58112"
         y2="-172.79498"
         id="line4885" /></g><g
       transform="matrix(0.75053203,0,0,0.46275952,752.42387,3434.4476)"
       id="g4891"
       style="fill:none;stroke:#ffffff;stroke-width:0.50006998"><path
         d="m 427.60202,571.91846 v 263.07032 h 2 V 571.91846 Z"
         id="path4889"
         inkscape:connector-curvature="0"
         style="fill:#ffffff" /></g><g
       transform="matrix(24.232606,0,0,0.50345403,-9337.0238,3411.1737)"
       id="switch.cancello"
       style="fill:none;stroke:#000000;stroke-width:0.50006998"
       inkscape:label="#g4895"><g
         id="g450"><path
           inkscape:connector-curvature="0"
           id="path4893"
           d="m 427.60202,571.91846 v 263.07032 h 2 V 571.91846 Z" /></g></g><g
       transform="matrix(0.75053203,0,0,0.46275952,752.42387,3434.4476)"
       id="g4899"
       style="fill:none;stroke:#ffffff;stroke-width:0.50006998"><path
         d="m 418.60202,698.45362 v 131.53516 h 7 V 698.45362 Z"
         id="path4897"
         inkscape:connector-curvature="0"
         style="fill:#ffffff" /></g><g
       transform="matrix(4.6169733,0,0,0.80950268,-900.87423,3146.6547)"
       id="g4907"
       style="fill:none;stroke:#000000;stroke-width:0.50006998"><path
         d="m 418.60202,698.45362 v 131.53516 h 7 V 698.45362 Z"
         id="path4901"
         inkscape:connector-curvature="0" /><line
         x1="427.60202"
         y1="703.45361"
         x2="425.60202"
         y2="703.45361"
         id="line4903" /><line
         x1="427.60202"
         y1="824.98877"
         x2="425.60202"
         y2="824.98877"
         id="line4905" /></g><g
       transform="matrix(0.59701411,0,0,0.46275952,640.14629,3434.4476)"
       id="g4915"
       style="fill:none;stroke:#ffffff;stroke-width:0.50006998"><path
         d="m -731.36465,742.60548 h 88.53576 v 59.10265 h -88.53576 z"
         id="path4909"
         inkscape:connector-curvature="0"
         style="fill:#ffffff" /><path
         d="m -642.82889,754.426 h 22.76634 v 35.46159 h -22.76634 z"
         id="path4911"
         inkscape:connector-curvature="0"
         style="fill:#ffffff" /><path
         d="m -620.06255,763.2914 h 15.17757 v 17.7308 h -15.17757 z"
         id="path4913"
         inkscape:connector-curvature="0"
         style="fill:#ffffff" /></g><g
       transform="matrix(0.59701411,0,0,0.46275952,640.14629,3434.4476)"
       id="g4923"
       style="fill:none;stroke:#000000;stroke-width:0.50006998"><path
         d="m -731.36465,742.60548 h 88.53576 v 59.10265 h -88.53576 z"
         id="path4917"
         inkscape:connector-curvature="0" /><path
         d="m -642.82889,754.426 h 22.76634 v 35.46159 h -22.76634"
         id="path4919"
         inkscape:connector-curvature="0" /><path
         d="m -620.06255,763.2914 h 15.17757 v 17.7308 h -15.17757"
         id="path4921"
         inkscape:connector-curvature="0" /></g><g
       transform="matrix(0.75053203,0,0,0.46275952,752.42387,3434.4476)"
       id="g4931"
       style="fill:none;stroke:#ffffff;stroke-width:0.50006998"><path
         d="m 480.78613,-80.85538 h 75.11335 v 50.14242 h -75.11335 z"
         id="path4925"
         inkscape:connector-curvature="0"
         style="fill:#ffffff" /><path
         d="m 555.89948,-70.8269 h 19.31486 v 30.08546 h -19.31486 z"
         id="path4927"
         inkscape:connector-curvature="0"
         style="fill:#ffffff" /><path
         d="m 575.21434,-63.30553 h 12.87658 v 15.04272 h -12.87658 z"
         id="path4929"
         inkscape:connector-curvature="0"
         style="fill:#ffffff" /></g><g
       transform="matrix(0.66046819,0,0,0.46275952,795.72531,3434.4476)"
       id="g4939"
       style="fill:none;stroke:#000000;stroke-width:0.50006998"><path
         d="m 480.78613,-80.85538 h 75.11335 v 50.14242 h -75.11335 z"
         id="path4933"
         inkscape:connector-curvature="0" /><path
         d="m 555.89948,-70.8269 h 19.31486 v 30.08546 h -19.31486"
         id="path4935"
         inkscape:connector-curvature="0" /><path
         d="m 575.21434,-63.30553 h 12.87658 v 15.04272 h -12.87658"
         id="path4937"
         inkscape:connector-curvature="0" /></g><g
       transform="matrix(0.75053203,0,0,0.46275952,752.42387,3434.4476)"
       id="g4943"
       style="fill:none;stroke:#ffffff;stroke-width:0.50006998"><path
         d="m -688.64961,-45.48823 c 1.10456,0 2,-0.89543 2,-2 v -81 c 0,-1.10457 -0.89544,-2 -2,-2 h -50.45199 c -1.10457,0 -2,0.89543 -2,2 v 81 c 0,1.10457 0.89543,2 2,2 z"
         id="path4941"
         inkscape:connector-curvature="0"
         style="fill:#ffffff" /></g><g
       transform="matrix(0.75053203,0,0,0.46275952,752.42387,3434.4476)"
       id="g4963"
       style="fill:none;stroke:#000000;stroke-width:0.50006998"><path
         d="m -688.64961,-45.48823 c 1.10456,0 2,-0.89543 2,-2 v -81 c 0,-1.10457 -0.89544,-2 -2,-2 h -50.45199 c -1.10457,0 -2,0.89543 -2,2 v 81 c 0,1.10457 0.89543,2 2,2 z"
         id="path4945"
         inkscape:connector-curvature="0" /><path
         d="m -692.64961,-49.48823 c 1.10456,0 2,-0.89543 2,-2 v -30.5 c 0,-1.10457 -0.89544,-2 -2,-2 h -42.45199 c -1.10457,0 -2,0.89543 -2,2 v 30.5 c 0,1.10457 0.89543,2 2,2 z"
         id="path4947"
         inkscape:connector-curvature="0" /><circle
         cx="-713.87561"
         cy="-78.988228"
         id="ellipse4949"
         r="3" /><line
         x1="-733.32275"
         y1="-87.988228"
         x2="-733.32275"
         y2="-126.48823"
         id="line4951" /><line
         x1="-725.54388"
         y1="-87.988228"
         x2="-725.54388"
         y2="-126.48823"
         id="line4953" /><line
         x1="-717.76501"
         y1="-87.988228"
         x2="-717.76501"
         y2="-126.48823"
         id="line4955" /><line
         x1="-709.98621"
         y1="-87.988228"
         x2="-709.98621"
         y2="-126.48823"
         id="line4957" /><line
         x1="-702.20734"
         y1="-87.988228"
         x2="-702.20734"
         y2="-126.48823"
         id="line4959" /><line
         x1="-694.42847"
         y1="-87.988228"
         x2="-694.42847"
         y2="-126.48823"
         id="line4961" /></g><g
       transform="matrix(0.75053203,0,0,0.46275952,616.31653,3775.4119)"
       id="g4971"
       style="opacity:1;fill:none;stroke:#000000;stroke-width:0.50006998" /><flowRoot
       xml:space="preserve"
       id="sensor.temperatura"
       style="font-style:normal;font-weight:normal;font-size:40px;line-height:1.25;font-family:sans-serif;letter-spacing:0px;word-spacing:0px;fill:#000000;fill-opacity:1;stroke:none"
       transform="matrix(0.74928728,0,0,0.55871459,-1071.8116,3042.4336)"
       inkscape:label="#flowRoot5451"><flowRegion
         id="flowRegion5453"><rect
           id="rect5455"
           width="425.92526"
           height="244.95273"
           x="2171.6704"
           y="475.44574" /></flowRegion><flowPara
         id="flowPara5457">Temp</flowPara></flowRoot></g></svg>